<?xml version="1.0" encoding="UTF-8" standalone="no"?>
<!-- Created with Inkscape (http://www.inkscape.org/) -->

<svg
   xmlns:dc="http://purl.org/dc/elements/1.1/"
   xmlns:cc="http://creativecommons.org/ns#"
   xmlns:rdf="http://www.w3.org/1999/02/22-rdf-syntax-ns#"
   xmlns:svg="http://www.w3.org/2000/svg"
   xmlns="http://www.w3.org/2000/svg"
   xmlns:sodipodi="http://sodipodi.sourceforge.net/DTD/sodipodi-0.dtd"
   xmlns:inkscape="http://www.inkscape.org/namespaces/inkscape"
   width="193.0609mm"
   height="193.0609mm"
   viewBox="0 0 193.0609 193.0609"
   version="1.1"
   id="svg8"
   inkscape:version="0.92.4 5da689c313, 2019-01-14"
   sodipodi:docname="logo_bw.svg">
  <defs
     id="defs2">
    <filter
       style="color-interpolation-filters:sRGB"
       inkscape:label="Drop Shadow"
       id="filter6684">
      <feFlood
         flood-opacity="1"
         flood-color="rgb(223,133,67)"
         result="flood"
         id="feFlood6674" />
      <feComposite
         in="flood"
         in2="SourceGraphic"
         operator="in"
         result="composite1"
         id="feComposite6676" />
      <feGaussianBlur
         in="composite1"
         stdDeviation="0"
         result="blur"
         id="feGaussianBlur6678" />
      <feOffset
         dx="2"
         dy="2"
         result="offset"
         id="feOffset6680" />
      <feComposite
         in="SourceGraphic"
         in2="offset"
         operator="over"
         result="composite2"
         id="feComposite6682" />
    </filter>
    <filter
       style="color-interpolation-filters:sRGB"
       inkscape:label="Drop Shadow"
       id="filter7730">
      <feFlood
         flood-opacity="0.705882"
         flood-color="rgb(255,255,255)"
         result="flood"
         id="feFlood7720" />
      <feComposite
         in="flood"
         in2="SourceGraphic"
         operator="out"
         result="composite1"
         id="feComposite7722" />
      <feGaussianBlur
         in="composite1"
         stdDeviation="0"
         result="blur"
         id="feGaussianBlur7724" />
      <feOffset
         dx="0.3"
         dy="0.3"
         result="offset"
         id="feOffset7726" />
      <feComposite
         in="offset"
         in2="SourceGraphic"
         operator="atop"
         result="fbSourceGraphic"
         id="feComposite7728" />
      <feColorMatrix
         result="fbSourceGraphicAlpha"
         in="fbSourceGraphic"
         values="0 0 0 -1 0 0 0 0 -1 0 0 0 0 -1 0 0 0 0 1 0"
         id="feColorMatrix8299" />
      <feFlood
         id="feFlood8301"
         flood-opacity="1"
         flood-color="rgb(223,133,67)"
         result="flood"
         in="fbSourceGraphic" />
      <feComposite
         in2="fbSourceGraphic"
         id="feComposite8303"
         in="flood"
         operator="in"
         result="composite1" />
      <feGaussianBlur
         id="feGaussianBlur8305"
         in="composite1"
         stdDeviation="0"
         result="blur" />
      <feOffset
         id="feOffset8307"
         dx="4"
         dy="4"
         result="offset" />
      <feComposite
         in2="offset"
         id="feComposite8309"
         in="fbSourceGraphic"
         operator="over"
         result="composite2" />
    </filter>
    <filter
       style="color-interpolation-filters:sRGB"
       inkscape:label="Drop Shadow"
       id="filter8154">
      <feFlood
         flood-opacity="1"
         flood-color="rgb(12,62,95)"
         result="flood"
         id="feFlood8144" />
      <feComposite
         in="flood"
         in2="SourceGraphic"
         operator="out"
         result="composite1"
         id="feComposite8146" />
      <feGaussianBlur
         in="composite1"
         stdDeviation="0"
         result="blur"
         id="feGaussianBlur8148" />
      <feOffset
         dx="2.5"
         dy="2.5"
         result="offset"
         id="feOffset8150" />
      <feComposite
         in="offset"
         in2="SourceGraphic"
         operator="atop"
         result="fbSourceGraphic"
         id="feComposite8152" />
      <feColorMatrix
         result="fbSourceGraphicAlpha"
         in="fbSourceGraphic"
         values="0 0 0 -1 0 0 0 0 -1 0 0 0 0 -1 0 0 0 0 1 0"
         id="feColorMatrix8180" />
      <feFlood
         id="feFlood8182"
         flood-opacity="0.705882"
         flood-color="rgb(255,255,255)"
         result="flood"
         in="fbSourceGraphic" />
      <feComposite
         in2="fbSourceGraphic"
         id="feComposite8184"
         in="flood"
         operator="out"
         result="composite1" />
      <feGaussianBlur
         id="feGaussianBlur8186"
         in="composite1"
         stdDeviation="0"
         result="blur" />
      <feOffset
         id="feOffset8188"
         dx="-0.3"
         dy="-0.3"
         result="offset" />
      <feComposite
         in2="fbSourceGraphic"
         id="feComposite8190"
         in="offset"
         operator="atop"
         result="composite2" />
    </filter>
    <filter
       style="color-interpolation-filters:sRGB"
       inkscape:label="Drop Shadow"
       id="filter8345">
      <feFlood
         flood-opacity="1"
         flood-color="rgb(15,76,117)"
         result="flood"
         id="feFlood8335" />
      <feComposite
         in="flood"
         in2="SourceGraphic"
         operator="in"
         result="composite1"
         id="feComposite8337" />
      <feGaussianBlur
         in="composite1"
         stdDeviation="0"
         result="blur"
         id="feGaussianBlur8339" />
      <feOffset
         dx="0"
         dy="4"
         result="offset"
         id="feOffset8341" />
      <feComposite
         in="SourceGraphic"
         in2="offset"
         operator="over"
         result="composite2"
         id="feComposite8343" />
    </filter>
    <clipPath
       clipPathUnits="userSpaceOnUse"
       id="clipPath8448">
      <circle
         style="opacity:1;fill:#ffa34d;fill-opacity:1;stroke:none;stroke-width:0.06500001;stroke-linecap:square;stroke-linejoin:round;stroke-miterlimit:4;stroke-dasharray:none;stroke-dashoffset:0;stroke-opacity:0"
         id="circle8450"
         cx="168.23631"
         cy="216.99045"
         r="80.442039" />
    </clipPath>
  </defs>
  <sodipodi:namedview
     id="base"
     pagecolor="#ffffff"
     bordercolor="#666666"
     borderopacity="1.0"
     inkscape:pageopacity="0.0"
     inkscape:pageshadow="2"
     inkscape:zoom="0.43259088"
     inkscape:cx="217.93024"
     inkscape:cy="227.7787"
     inkscape:document-units="mm"
     inkscape:current-layer="layer1"
     showgrid="false"
     inkscape:snap-object-midpoints="true"
     inkscape:snap-center="true"
     inkscape:snap-nodes="true"
     inkscape:snap-global="true"
     inkscape:snap-grids="false"
     showguides="false"
     inkscape:window-width="1280"
     inkscape:window-height="761"
     inkscape:window-x="0"
     inkscape:window-y="18"
     inkscape:window-maximized="0"
     fit-margin-top="0"
     fit-margin-left="0"
     fit-margin-right="0"
     fit-margin-bottom="0"
     inkscape:pagecheckerboard="true">
    <inkscape:grid
       type="xygrid"
       id="grid815"
       originx="-40.478688"
       originy="44.35314" />
  </sodipodi:namedview>
  <metadata
     id="metadata5">
    <rdf:RDF>
      <cc:Work
         rdf:about="">
        <dc:format>image/svg+xml</dc:format>
        <dc:type
           rdf:resource="http://purl.org/dc/dcmitype/StillImage" />
        <dc:title></dc:title>
      </cc:Work>
    </rdf:RDF>
  </metadata>
  <g
     inkscape:label="Layer 1"
     inkscape:groupmode="layer"
     id="layer1"
     transform="translate(-17.212872,-48.667644)">
    <path
       style="opacity:1;fill:#ffffff;fill-opacity:0.9556962;stroke:none;stroke-width:0.24566928;stroke-linecap:square;stroke-linejoin:round;stroke-miterlimit:4;stroke-dasharray:none;stroke-dashoffset:0;stroke-opacity:0"
       d="M 364.83984 60.806641 A 304.03291 304.03291 0 0 0 60.806641 364.83984 A 304.03291 304.03291 0 0 0 99.087891 511.82227 L 102.26953 474.52148 L 130.63672 467.03906 L 173.19531 468.19336 L 182.08398 463.99805 L 183.40039 464.10938 A 347.51225 347.71033 4.8753213 0 1 193.68945 425.83594 L 192.38086 425.22852 L 186.74023 417.17188 L 149.21875 397.04688 L 128.30469 376.4668 L 148.01367 333.93359 L 177.23047 336.60742 L 216.82617 352.25977 L 226.61328 351.35742 L 227.93359 351.96875 A 347.51225 347.71033 4.8753213 0 1 250.48828 319.39453 L 249.53906 318.44727 L 246.99414 308.94922 L 218.61719 277.19727 L 206 250.69922 L 239.05664 217.47656 L 265.59375 229.98633 L 297.45508 258.24219 L 306.95703 260.74609 L 307.87891 261.66211 A 347.51225 347.71033 4.8753213 0 1 340.35352 238.96289 L 339.74805 237.66602 L 340.60547 227.86914 L 324.79297 188.31641 L 321.99609 159.10156 L 364.41406 139.19141 L 385.07617 160.03125 L 405.35156 197.48438 L 413.42773 203.08984 L 414.04883 204.41797 A 347.51225 347.71033 4.8753213 0 1 452.25 193.97656 L 452.12891 192.62109 L 456.28516 183.71094 L 454.94531 141.13086 L 462.30469 112.7168 L 508.96875 108.52734 L 521.25977 135.17578 L 527.51172 177.31641 L 533.18164 185.3457 L 533.29102 186.54492 A 347.51225 347.71033 4.8753213 0 1 553.11328 187.5293 A 347.51225 347.71033 4.8753213 0 1 572.74219 190.19922 L 573.12695 188.75195 L 580.07422 181.79883 L 587.73633 158.47852 A 304.03291 304.03291 0 0 0 364.83984 60.806641 z M 517.44336 240.91406 A 293.14436 293.31145 4.8753213 0 0 488.22656 243.1543 L 515.13281 358.64062 A 175.65485 175.75497 4.8753213 0 1 538.5 358.86719 A 175.65485 175.75497 4.8753213 0 1 654.97852 417.66602 L 664.85938 411.69531 A 304.03291 304.03291 0 0 0 668.87305 364.83984 A 304.03291 304.03291 0 0 0 653.87305 271.71484 A 293.14436 293.31145 4.8753213 0 0 548.49023 241.73633 A 293.14436 293.31145 4.8753213 0 0 517.44336 240.91406 z M 426.72656 257.53516 A 293.14436 293.31145 4.8753213 0 0 235.97461 477.73438 L 354.2207 487.82031 A 175.65485 175.75497 4.8753213 0 1 453.61523 372.95117 L 426.72656 257.53516 z M 106.6875 525.07227 A 304.03291 304.03291 0 0 0 165.52734 594.16406 L 171.82422 592.0625 L 178.74609 585.08203 L 180.17578 584.69336 A 347.51225 347.71033 4.8753213 0 1 176.66406 545.25391 L 175.16406 545.125 L 167.11328 539.49023 L 124.97461 533.41797 L 106.6875 525.07227 z M 230.83789 540.72461 A 293.14436 293.31145 4.8753213 0 0 254.06445 647.6543 A 304.03291 304.03291 0 0 0 364.83984 668.87305 A 304.03291 304.03291 0 0 0 407.48047 665.54688 A 175.65485 175.75497 4.8753213 0 1 348.78711 550.78711 L 230.83789 540.72461 z "
       transform="matrix(0.26458333,0,0,0.26458333,17.212872,48.667644)"
       id="path5237" />
    <path
       style="fill:#ffffff;fill-opacity:0.9208861;fill-rule:evenodd;stroke:none;stroke-width:0.26458335px;stroke-linecap:butt;stroke-linejoin:miter;stroke-opacity:1"
       d="m 155.73785,161.00309 a 15.394047,15.385278 0 0 0 -15.39377,15.38598 15.394047,15.385278 0 0 0 8.72566,13.84488 l -2.87366,28.66566 h 19.08451 l -2.87271,-28.65894 a 15.394047,15.385278 0 0 0 8.72472,-13.8516 15.394047,15.385278 0 0 0 -15.39475,-15.38598 z"
       id="path5279"
       inkscape:connector-curvature="0" />
  </g>
</svg>
