<svg version="1.1"
     baseProfile="full"
     width="1" height="1"
     xmlns="http://www.w3.org/2000/svg">

  <path d="m 0.98150688,0.76856991 -0.10403212,-0.18018812 -0.20806362,-4.1e-7 -0.10403393,0.18019207 0.10403216,0.18018816 0.20806355,4e-7 z M 0.26820114,0.01591618 V 0.22824247 H 0.13410033 L 0.31290141,0.40704355 0.4917025,0.22824247 H 0.35760168 V 0.01591618 Z M 0.09521131,0.10531672 c -0.02235013,0 -0.04112425,0.0169855 -0.04470027,0.0384416 L -4.8598161e-7,0.46291889 v 0.11175068 c 0,0.0245851 0.0201151259816,0.0447003 0.0447002759816,0.0447003 h 0.53640325 c 0.0245851,0 0.0447003,-0.0201152 0.0447003,-0.0447003 V 0.46291889 L 0.57529178,0.1437583 C 0.57171578,0.1223022 0.55294168,0.1053167 0.53059148,0.1053167 h -0.0835893 v 0.0442528 h 0.0894005 l 0.0447003,0.31290189 H 0.04469979 L 0.08940006,0.14956955 H 0.1788006 v -0.0442528 z"
        fill="#cb1aba"
        id="icon" />

</svg>
