<svg version="1.1"
     baseProfile="full"
     width="1" height="1"
     xmlns="http://www.w3.org/2000/svg">

  <path d="m 0.87605091,0.7159786 c 0,-0.053329 -0.036591,-0.087585 -0.0945916,-0.087585 -0.0572221,0 -0.090699,0.033866 -0.090699,0.092256 0,0.00234 0,0.00545 3.8927e-4,0.00973 h 0.0521616 v -0.00895 c 0,-0.030752 0.0144028,-0.048658 0.0393159,-0.048658 0.0241345,0 0.0389266,0.016738 0.0389266,0.044376 0,0.030363 -0.009732,0.04243 -0.0704571,0.085638 -0.0467119,0.03192 -0.0611148,0.056444 -0.0638396,0.1074374 H 0.87488315 V 0.861565 H 0.75810334 c 0.007007,-0.014792 0.0155706,-0.022578 0.0560543,-0.052162 0.0478797,-0.035034 0.0618933,-0.056054 0.0618933,-0.0934244 z m -0.86804428,0.081191 c -0.01077851,0.010926 -0.01065959,0.0284 2.6655e-4,0.039178 l 0.15777918,0.1556462 c 0.0109262,0.0107784 0.0283996,0.0106595 0.0391782,-2.7e-4 L 0.34142087,0.8536704 0.36087667,0.8339474 0.34115427,0.8144914 0.18337511,0.6588452 0.16365271,0.6393892 0.14419691,0.6591112 Z m 0.62258434,-0.6311166 0.0197224,0.019456 0.15777917,0.155646 0.0197224,0.019456 0.0194557,-0.019722 0.0778231,-0.07889 0.0583673,-0.059167 c 0.0107783,-0.010926 0.0106594,-0.0284 -2.7005e-4,-0.039178 L 0.82541524,0.0080072 c -0.0109263,-0.010779 -0.0283997,-0.010659 -0.0391782,2.667e-4 l -0.0583673,0.059167 -0.0778231,0.07889 z M 0.20283087,0.6391238 0.36061002,0.79477 0.78863669,0.3608773 0.63085759,0.2052312 Z"
        fill="#1a84cb"
        id="icon"/>
       
</svg>
