<svg version="1.1"
     baseProfile="full"
     width="1" height="1"
     xmlns="http://www.w3.org/2000/svg">

  <path d="m 0.8764402,0.82536226 c 0,-0.0323091 -0.014014,-0.0506046 -0.045155,-0.0657859 0.025692,-0.0159599 0.036202,-0.030752 0.036202,-0.0560543 0,-0.0459334 -0.034255,-0.0751283 -0.087585,-0.0751283 -0.053329,0 -0.089531,0.0280271 -0.089531,0.0879741 v 0.004671 h 0.050604 c 0,-0.0342554 0.010899,-0.0486582 0.037759,-0.0486582 0.021799,0 0.034255,0.013235 0.034255,0.0362017 0,0.0276379 -0.01596,0.0389266 -0.048269,0.0389266 h -0.00467 v 0.036591 c 0.040873,0 0.061893,0.011678 0.061893,0.0412622 0,0.0241345 -0.017128,0.0416515 -0.040873,0.0416515 -0.025692,0 -0.041262,-0.0147921 -0.041262,-0.0432085 h -0.05294 c 0,0.0552758 0.036591,0.0899204 0.093034,0.0899204 0.058779,0 0.096538,-0.0346447 0.096538,-0.0883633 z M 0.0080066,0.79716964 c -0.010778,0.0109261 -0.01066,0.0283996 2.666e-4,0.0391781 l 0.1577792,0.1556462 c 0.010926,0.0107784 0.0284,0.0106595 0.039178,-2.7005e-4 l 0.1361903,-0.1380534 0.019456,-0.0197224 -0.019722,-0.0194557 -0.1577792,-0.15564621 -0.019722,-0.0194557 -0.019456,0.0197224 z m 0.6225844,-0.63111663 0.019722,0.0194558 0.1577792,0.15564608 0.019722,0.0194557 0.019456,-0.0197224 0.077823,-0.0788896 0.058367,-0.0591672 c 0.010778,-0.0109262 0.010659,-0.0283996 -2.701e-4,-0.0391782 L 0.8254152,0.0080072 c -0.010926,-0.01077845 -0.0284,-0.01065953 -0.039178,2.6668e-4 L 0.7278698,0.06744104 0.6500467,0.14633062 Z M 0.2028309,0.63912381 0.36061,0.79476996 0.7886367,0.36087726 0.6308576,0.20523116 Z"
        fill="#1a84cb"
        id="icon"/>
       
</svg>
