<svg version="1.1"
     baseProfile="full"
     width="1" height="1"
     xmlns="http://www.w3.org/2000/svg">

  <path d="M 0.8227215,0.91022223 V 0.63423269 h -0.036202 c -0.00856,0.0326983 -0.03698,0.0494368 -0.084471,0.0494368 v 0.0362017 h 0.066175 V 0.91022222 Z M 0.0080066,0.7971696 c -0.010779,0.0109261 -0.01066,0.0283996 2.666e-4,0.0391781 l 0.1577792,0.1556462 c 0.010926,0.0107784 0.0284,0.0106595 0.039178,-2.7005e-4 l 0.1361903,-0.1380534 0.019456,-0.0197224 -0.019722,-0.0194557 -0.1577792,-0.15564621 -0.019722,-0.0194557 -0.019456,0.0197224 z m 0.6225844,-0.63111663 0.019722,0.0194558 0.1577792,0.15564608 0.019722,0.0194558 0.019456,-0.0197224 0.077823,-0.0788896 0.058367,-0.0591672 c 0.010778,-0.0109262 0.010659,-0.0283996 -2.701e-4,-0.0391782 L 0.8254152,0.00800716 c -0.010926,-0.01077845 -0.0284,-0.01065953 -0.039178,2.6668e-4 L 0.7278702,0.067441 0.6500472,0.14633058 Z M 0.2028309,0.63912377 0.36061,0.79476992 0.7886367,0.36087722 0.6308576,0.20523112 Z"
        fill="#1a84cb"
        id="icon"/>
       
</svg>
