<svg version="1.1"
     baseProfile="full"
     width="1" height="1"
     xmlns="http://www.w3.org/2000/svg">

  <path d="M 0.78553227,0.86750466 V 0.61867174 h -0.0326396 c -0.007721,0.0294809 -0.0333415,0.0445723 -0.076159,0.0445723 v 0.0326396 h 0.0596638 V 0.86750465 Z M 0.86789062,0 a 0.12338537,0.12338537 0 0 0 -0.12338671,0.12338478 0.12338537,0.12338537 0 0 0 0.0861269,0.11758398 c 0.001852,0.034229 -2.007e-5,0.0591314 -0.004461,0.0754375 -0.007268,0.0266861 -0.0108438,0.0299013 -0.03125,0.0351563 C 0.75410779,0.36207239 0.63760555,0.33718864 0.4765625,0.29882813 0.38001628,0.27583079 0.30684693,0.2787503 0.25195312,0.31054689 0.19705934,0.34234345 0.1704934,0.39874871 0.15625,0.45507813 0.13128989,0.55378965 0.13363077,0.66894908 0.10563867,0.75463478 A 0.12338537,0.12338537 0 0 0 0,0.87661524 0.12338537,0.12338537 0 0 0 0.12338477,1 0.12338537,0.12338537 0 0 0 0.24677148,0.87661524 0.12338537,0.12338537 0 0 0 0.19562891,0.77673829 c 0.0357141,-0.10661111 0.0331227,-0.22191431 0.052418,-0.29822266 0.0112863,-0.0446346 0.025139,-0.0710845 0.0507812,-0.0859375 0.0256423,-0.014853 0.072079,-0.0220028 0.15625,-0.001953 0.15925458,0.0379345 0.2708807,0.0765291 0.36328126,0.0527344 0.0462002,-0.0118974 0.0840028,-0.0514349 0.0976543,-0.1015625 0.008514,-0.0312624 0.0112568,-0.0669129 0.009092,-0.10916602 A 0.12338537,0.12338537 0 0 0 0.99127539,0.12338478 0.12338537,0.12338537 0 0 0 0.86789062,0 Z"
        fill="#f0a41c"
        id="icon"/>
       
</svg>
