<svg version="1.1"
     baseProfile="full"
     width="1" height="1"
     xmlns="http://www.w3.org/2000/svg">

  <path d="M 0.5714,0.50004 H 0.78568 V 0.6429 H 0.49997 c -0.0393,0 -0.0714,-0.0321 -0.0714,-0.0714 V 0.21436 H 0.57143 Z M 0.5,0.0929 c 0.22429,0 0.40714,0.18285 0.40714,0.40714 0,0.22429 -0.18285,0.40714 -0.40714,0.40714 A 0.40785714,0.40785714 0 0 1 0.09286,0.50004 C 0.09286,0.27575 0.27571,0.0929 0.5,0.0929 Z M 0.5,0 C 0.22429,0 0,0.22429 0,0.5 0,0.77571 0.22429,1 0.5,1 0.77571,1 1,0.77571 1,0.5 1,0.22429 0.77571,0 0.5,0 Z"
        fill="#838383"
        id="icon" />

</svg>
