<?xml version="1.0" encoding="UTF-8" standalone="no"?>
<!-- Created with Inkscape (http://www.inkscape.org/) -->

<svg
   xmlns:dc="http://purl.org/dc/elements/1.1/"
   xmlns:cc="http://creativecommons.org/ns#"
   xmlns:rdf="http://www.w3.org/1999/02/22-rdf-syntax-ns#"
   xmlns:svg="http://www.w3.org/2000/svg"
   xmlns="http://www.w3.org/2000/svg"
   xmlns:sodipodi="http://sodipodi.sourceforge.net/DTD/sodipodi-0.dtd"
   xmlns:inkscape="http://www.inkscape.org/namespaces/inkscape"
   width="193.0609mm"
   height="193.0609mm"
   viewBox="0 0 193.0609 193.0609"
   version="1.1"
   id="svg8"
   inkscape:version="0.92.4 5da689c313, 2019-01-14"
   sodipodi:docname="logo.svg">
  <defs
     id="defs2">
    <filter
       style="color-interpolation-filters:sRGB"
       inkscape:label="Drop Shadow"
       id="filter6684">
      <feFlood
         flood-opacity="1"
         flood-color="rgb(223,133,67)"
         result="flood"
         id="feFlood6674" />
      <feComposite
         in="flood"
         in2="SourceGraphic"
         operator="in"
         result="composite1"
         id="feComposite6676" />
      <feGaussianBlur
         in="composite1"
         stdDeviation="0"
         result="blur"
         id="feGaussianBlur6678" />
      <feOffset
         dx="2"
         dy="2"
         result="offset"
         id="feOffset6680" />
      <feComposite
         in="SourceGraphic"
         in2="offset"
         operator="over"
         result="composite2"
         id="feComposite6682" />
    </filter>
    <filter
       style="color-interpolation-filters:sRGB"
       inkscape:label="Drop Shadow"
       id="filter7730">
      <feFlood
         flood-opacity="0.705882"
         flood-color="rgb(255,255,255)"
         result="flood"
         id="feFlood7720" />
      <feComposite
         in="flood"
         in2="SourceGraphic"
         operator="out"
         result="composite1"
         id="feComposite7722" />
      <feGaussianBlur
         in="composite1"
         stdDeviation="0"
         result="blur"
         id="feGaussianBlur7724" />
      <feOffset
         dx="0.3"
         dy="0.3"
         result="offset"
         id="feOffset7726" />
      <feComposite
         in="offset"
         in2="SourceGraphic"
         operator="atop"
         result="fbSourceGraphic"
         id="feComposite7728" />
      <feColorMatrix
         result="fbSourceGraphicAlpha"
         in="fbSourceGraphic"
         values="0 0 0 -1 0 0 0 0 -1 0 0 0 0 -1 0 0 0 0 1 0"
         id="feColorMatrix8299" />
      <feFlood
         id="feFlood8301"
         flood-opacity="1"
         flood-color="rgb(223,133,67)"
         result="flood"
         in="fbSourceGraphic" />
      <feComposite
         in2="fbSourceGraphic"
         id="feComposite8303"
         in="flood"
         operator="in"
         result="composite1" />
      <feGaussianBlur
         id="feGaussianBlur8305"
         in="composite1"
         stdDeviation="0"
         result="blur" />
      <feOffset
         id="feOffset8307"
         dx="4"
         dy="4"
         result="offset" />
      <feComposite
         in2="offset"
         id="feComposite8309"
         in="fbSourceGraphic"
         operator="over"
         result="composite2" />
    </filter>
    <filter
       style="color-interpolation-filters:sRGB"
       inkscape:label="Drop Shadow"
       id="filter8154">
      <feFlood
         flood-opacity="1"
         flood-color="rgb(12,62,95)"
         result="flood"
         id="feFlood8144" />
      <feComposite
         in="flood"
         in2="SourceGraphic"
         operator="out"
         result="composite1"
         id="feComposite8146" />
      <feGaussianBlur
         in="composite1"
         stdDeviation="0"
         result="blur"
         id="feGaussianBlur8148" />
      <feOffset
         dx="2.5"
         dy="2.5"
         result="offset"
         id="feOffset8150" />
      <feComposite
         in="offset"
         in2="SourceGraphic"
         operator="atop"
         result="fbSourceGraphic"
         id="feComposite8152" />
      <feColorMatrix
         result="fbSourceGraphicAlpha"
         in="fbSourceGraphic"
         values="0 0 0 -1 0 0 0 0 -1 0 0 0 0 -1 0 0 0 0 1 0"
         id="feColorMatrix8180" />
      <feFlood
         id="feFlood8182"
         flood-opacity="0.705882"
         flood-color="rgb(255,255,255)"
         result="flood"
         in="fbSourceGraphic" />
      <feComposite
         in2="fbSourceGraphic"
         id="feComposite8184"
         in="flood"
         operator="out"
         result="composite1" />
      <feGaussianBlur
         id="feGaussianBlur8186"
         in="composite1"
         stdDeviation="0"
         result="blur" />
      <feOffset
         id="feOffset8188"
         dx="-0.3"
         dy="-0.3"
         result="offset" />
      <feComposite
         in2="fbSourceGraphic"
         id="feComposite8190"
         in="offset"
         operator="atop"
         result="composite2" />
    </filter>
    <filter
       style="color-interpolation-filters:sRGB"
       inkscape:label="Drop Shadow"
       id="filter8345">
      <feFlood
         flood-opacity="1"
         flood-color="rgb(15,76,117)"
         result="flood"
         id="feFlood8335" />
      <feComposite
         in="flood"
         in2="SourceGraphic"
         operator="in"
         result="composite1"
         id="feComposite8337" />
      <feGaussianBlur
         in="composite1"
         stdDeviation="0"
         result="blur"
         id="feGaussianBlur8339" />
      <feOffset
         dx="0"
         dy="4"
         result="offset"
         id="feOffset8341" />
      <feComposite
         in="SourceGraphic"
         in2="offset"
         operator="over"
         result="composite2"
         id="feComposite8343" />
    </filter>
    <clipPath
       clipPathUnits="userSpaceOnUse"
       id="clipPath8448">
      <circle
         style="opacity:1;fill:#ffa34d;fill-opacity:1;stroke:none;stroke-width:0.06500001;stroke-linecap:square;stroke-linejoin:round;stroke-miterlimit:4;stroke-dasharray:none;stroke-dashoffset:0;stroke-opacity:0"
         id="circle8450"
         cx="168.23631"
         cy="216.99045"
         r="80.442039" />
    </clipPath>
  </defs>
  <sodipodi:namedview
     id="base"
     pagecolor="#ffffff"
     bordercolor="#666666"
     borderopacity="1.0"
     inkscape:pageopacity="0.0"
     inkscape:pageshadow="2"
     inkscape:zoom="0.43259088"
     inkscape:cx="343.41757"
     inkscape:cy="223.82973"
     inkscape:document-units="mm"
     inkscape:current-layer="layer1"
     showgrid="false"
     inkscape:snap-object-midpoints="true"
     inkscape:snap-center="true"
     inkscape:snap-nodes="true"
     inkscape:snap-global="true"
     inkscape:snap-grids="false"
     showguides="false"
     inkscape:window-width="1280"
     inkscape:window-height="761"
     inkscape:window-x="0"
     inkscape:window-y="18"
     inkscape:window-maximized="0"
     fit-margin-top="0"
     fit-margin-left="0"
     fit-margin-right="0"
     fit-margin-bottom="0">
    <inkscape:grid
       type="xygrid"
       id="grid815"
       originx="-40.478688"
       originy="44.35314" />
  </sodipodi:namedview>
  <metadata
     id="metadata5">
    <rdf:RDF>
      <cc:Work
         rdf:about="">
        <dc:format>image/svg+xml</dc:format>
        <dc:type
           rdf:resource="http://purl.org/dc/dcmitype/StillImage" />
        <dc:title></dc:title>
      </cc:Work>
    </rdf:RDF>
  </metadata>
  <g
     inkscape:label="Layer 1"
     inkscape:groupmode="layer"
     id="layer1"
     transform="translate(-17.212872,-48.667644)">
    <g
       id="g8459"
       transform="translate(-54.492994,-71.792357)">
      <path
         style="opacity:1;fill:#060606;fill-opacity:1;stroke:none;stroke-width:4;stroke-linecap:square;stroke-linejoin:round;stroke-miterlimit:4;stroke-dasharray:none;stroke-dashoffset:0;stroke-opacity:0.95999995"
         d="m 165.4277,156.98851 -1.4056,3.93671 -0.3514,6.05596 -0.70228,1.21129 v 0.21446 a 49.515606,49.515606 0 0 0 -5.55367,0.97617 l -0.0723,-0.19844 -1.07436,-0.89813 -2.4014,-5.57072 -2.66702,-3.21841 -6.27352,2.28306 0.0258,4.18011 1.74098,5.81101 -0.24598,1.37873 0.0553,0.15245 a 49.515606,49.515606 0 0 0 -4.89014,2.83755 l -0.11214,-0.13384 -1.31723,-0.47646 -4.16202,-4.41316 -3.60701,-2.11202 -5.1139,4.29069 1.45366,3.91914 3.62406,4.86534 0.2403,1.37924 0.13746,0.16382 a 49.515606,49.515606 0 0 0 -3.62562,4.3186 l -0.18397,-0.10646 -1.40043,0.003 -5.42034,-2.72386 -4.11189,-0.75086 -3.33779,5.78104 2.7063,3.18586 5.06894,3.33209 0.69763,1.2144 0.1447,0.0837 a 49.515606,49.515606 0 0 0 -1.93012,5.31337 l -0.16795,-0.0294 -1.31516,0.48214 -6.02496,-0.7059 -4.12068,0.70073 -1.15961,6.57428 3.63285,2.06757 5.903,1.39785 1.07073,0.90227 0.21033,0.0372 a 49.515606,49.515606 0 0 0 -0.14108,2.81894 49.515606,49.515606 0 0 0 0.10025,2.82619 l -0.1695,0.03 -1.07073,0.90227 -5.903,1.39785 -3.63285,2.06757 1.15961,6.57428 4.12068,0.70073 6.02496,-0.70538 1.31516,0.48162 0.19069,-0.0336 a 49.515606,49.515606 0 0 0 1.94407,5.29684 l -0.18139,0.10438 -0.69763,1.2144 -5.06894,3.3321 -2.7063,3.18585 3.33779,5.78104 4.11189,-0.75086 5.42034,-2.72386 1.40043,0.003 0.17674,-0.10232 a 49.515606,49.515606 0 0 0 3.61424,4.33669 l -0.11885,0.14159 -0.2403,1.37924 -3.62406,4.86534 -1.45366,3.91913 5.1139,4.29123 3.60701,-2.11254 4.16202,-4.41317 1.31723,-0.47646 0.12248,-0.14573 a 49.515606,49.515606 0 0 0 4.8953,2.80706 l -0.0708,0.19482 0.24598,1.37874 -1.74098,5.81102 -0.0258,4.1801 6.273,2.28306 2.66754,-3.21842 2.4014,-5.57069 1.07436,-0.89816 0.0703,-0.19325 a 49.515606,49.515606 0 0 0 5.55573,0.99735 v 0.18809 l 0.70228,1.21131 0.3514,6.05595 1.4056,3.93671 h 6.67608 l 1.40508,-3.93671 0.3514,-6.05595 0.7028,-1.21131 v -0.21394 a 49.515606,49.515606 0 0 0 5.55315,-0.97669 l 0.0724,0.19844 1.07487,0.89816 2.4014,5.57069 2.66702,3.21842 6.27352,-2.28306 -0.0258,-4.1801 -1.74149,-5.81102 0.24649,-1.37874 -0.0558,-0.15296 a 49.515606,49.515606 0 0 0 4.89066,-2.83651 l 0.11214,0.13332 1.31671,0.47646 4.16202,4.41317 3.60702,2.11254 5.1139,-4.29123 -1.45366,-3.91913 -3.62355,-4.86534 -0.2403,-1.37924 -0.13745,-0.16381 a 49.515606,49.515606 0 0 0 3.6251,-4.31861 l 0.18396,0.10646 1.40044,-0.003 5.42085,2.72386 4.11138,0.75086 3.3383,-5.78104 -2.70681,-3.18534 -5.06894,-3.33261 -0.69764,-1.2144 -0.14417,-0.0832 a 49.515606,49.515606 0 0 0 1.92959,-5.31441 l 0.16847,0.03 1.31465,-0.48162 6.02547,0.70538 4.12068,-0.70073 1.1591,-6.57428 -3.63234,-2.06757 -5.90351,-1.39785 -1.07074,-0.90227 -0.2098,-0.0372 a 49.515606,49.515606 0 0 0 0.14107,-2.81895 49.515606,49.515606 0 0 0 -0.10025,-2.82618 l 0.16898,-0.03 1.07074,-0.90227 5.90351,-1.39785 3.63234,-2.06757 -1.1591,-6.57428 -4.12068,-0.70073 -6.02547,0.7059 -1.31465,-0.48214 -0.19069,0.0336 a 49.515606,49.515606 0 0 0 -1.94406,-5.29684 l 0.18086,-0.10438 0.69764,-1.2144 5.06894,-3.33209 2.70681,-3.18586 -3.3383,-5.78104 -4.11138,0.75086 -5.42085,2.72386 -1.40044,-0.003 -0.17673,0.10181 a 49.515606,49.515606 0 0 0 -3.61373,-4.33566 l 0.11885,-0.14211 0.2403,-1.37924 3.62355,-4.86534 1.45366,-3.91914 -5.1139,-4.29069 -3.60702,2.11202 -4.16202,4.41316 -1.31671,0.47646 -0.12299,0.14624 a 49.515606,49.515606 0 0 0 -4.89479,-2.80758 l 0.0708,-0.19482 -0.24649,-1.37873 1.74149,-5.81101 0.0258,-4.18011 -6.27352,-2.28306 -2.66702,3.21841 -2.4014,5.57072 -1.07487,0.89813 -0.0703,0.19327 a 49.515606,49.515606 0 0 0 -5.55522,-0.99735 v -0.18811 l -0.7028,-1.21129 -0.3514,-6.05596 -1.40508,-3.93671 z m 7.8388,19.02106 a 41.768947,41.768947 0 0 1 33.55247,24.41453 l -16.0507,5.21518 A 25.028344,25.028344 0 0 0 173.2665,192.91913 Z m -8.99997,0.0336 v 16.86719 a 25.028344,25.028344 0 0 0 -17.52038,12.72325 l -16.04914,-5.21415 a 41.768947,41.768947 0 0 1 33.56952,-24.37629 z m -36.37297,32.92719 16.09307,5.22862 a 25.028344,25.028344 0 0 0 -0.24959,3.32072 25.028344,25.028344 0 0 0 6.92257,17.26459 l -9.91464,13.64619 a 41.768947,41.768947 0 0 1 -13.74851,-30.91078 41.768947,41.768947 0 0 1 0.8971,-8.54934 z m 81.71026,0.0109 a 41.768947,41.768947 0 0 1 0.93069,8.53849 41.768947,41.768947 0 0 1 -13.74748,30.91181 l -9.92653,-13.66325 a 25.028344,25.028344 0 0 0 6.93343,-17.24856 25.028344,25.028344 0 0 0 -0.25063,-3.3202 z m -51.6506,31.07666 a 25.028344,25.028344 0 0 0 10.81226,2.49028 25.028344,25.028344 0 0 0 10.81795,-2.48357 l 9.91929,13.6524 a 41.768947,41.768947 0 0 1 -20.73724,5.57175 41.768947,41.768947 0 0 1 -20.74808,-5.55676 z"
         id="path5432"
         inkscape:connector-curvature="0" />
      <circle
         r="80.442039"
         cy="216.99045"
         cx="168.23631"
         id="path5237"
         style="opacity:1;fill:#ffa34d;fill-opacity:1;stroke:none;stroke-width:0.065;stroke-linecap:square;stroke-linejoin:round;stroke-miterlimit:4;stroke-dasharray:none;stroke-dashoffset:0;stroke-opacity:0;filter:url(#filter8345)" />
      <g
         clip-path="url(#clipPath8448)"
         id="g8446">
        <path
           style="opacity:1;fill:#3282b8;fill-opacity:1;stroke:none;stroke-width:4;stroke-linecap:square;stroke-linejoin:round;stroke-miterlimit:4;stroke-dasharray:none;stroke-dashoffset:0;stroke-opacity:0.95999995;filter:url(#filter7730)"
           d="m 97.71041,258.37025 7.06171,3.22339 11.14919,1.60624 2.13022,1.49126 0.3968,0.0338 a 91.94595,91.998357 4.8753213 0 0 0.92914,10.43526 l -0.37851,0.10268 -1.83135,1.84716 -10.68609,3.56645 -6.37581,4.42939 3.23348,11.97412 7.73808,0.61192 11.02638,-2.30591 2.51207,0.67295 0.29068,-0.0787 a 91.94595,91.998357 4.8753213 0 0 4.47783,9.50066 l -0.26534,0.18649 -1.08952,2.36332 -8.82239,7.00846 -4.4772,6.34414 7.13108,10.14423 7.4807,-2.07259 9.57406,-5.9412 2.58979,-0.22718 0.3248,-0.22864 a 91.94595,91.998357 4.8753213 0 0 7.41774,7.39346 l -0.22602,0.32378 -0.21558,2.59301 -5.89556,9.60451 -2.03852,7.49361 10.16896,7.0914 6.3218,-4.50725 6.9654,-8.85799 2.35704,-1.09984 0.1777,-0.25467 a 91.94595,91.998357 4.8753213 0 0 9.52597,4.41165 l -0.0809,0.30628 0.68439,2.51078 -2.25742,11.04227 0.64581,7.73898 11.98057,3.18424 4.39903,-6.399 3.51841,-10.70731 1.83844,-1.83979 0.10204,-0.3835 a 91.94595,91.998357 4.8753213 0 0 5.19329,0.70604 91.94595,91.998357 4.8753213 0 0 5.24482,0.26043 l 0.0288,0.3185 1.50029,2.12457 1.65419,11.1485 3.25174,7.05159 12.34679,-1.1092 1.94715,-7.51781 -0.35372,-11.265 1.09876,-2.35867 -0.032,-0.35834 a 91.94595,91.998357 4.8753213 0 0 10.10715,-2.76302 l 0.16446,0.35226 2.1367,1.48314 5.36462,9.90969 5.46709,5.51281 11.22308,-5.26674 -0.73995,-7.7306 -4.18377,-10.46425 0.22668,-2.59207 -0.1614,-0.34333 a 91.94595,91.998357 4.8753213 0 0 8.59441,-6.00645 l 0.2432,0.24237 2.5139,0.66251 8.42955,7.47685 7.0216,3.30957 8.7471,-8.78986 -3.33904,-7.01085 -7.508,-8.40138 -0.67357,-2.5137 -0.25029,-0.24973 a 91.94595,91.998357 4.8753213 0 0 5.96658,-8.6194 l 0.34929,0.1618 2.58977,-0.23778 10.47658,4.14003 7.72991,0.70746 5.21462,-11.25256 -5.53346,-5.44619 -9.92765,-5.32471 -1.49212,-2.13064 -0.34645,-0.16064 a 91.94595,91.998357 4.8753213 0 0 2.72257,-10.12763 l 0.34799,0.0297 2.35205,-1.10893 11.26015,0.30518 7.50561,-1.98084 1.05419,-12.35905 -7.0618,-3.22243 -11.14917,-1.60623 -2.13018,-1.49222 -0.39583,-0.0338 a 91.94595,91.998357 4.8753213 0 0 -0.9302,-10.43438 l 0.3786,-0.10271 1.83148,-1.8481 10.68603,-3.56643 6.37583,-4.42939 -3.23348,-11.97413 -7.73805,-0.61192 -11.02648,2.30686 -2.51202,-0.67389 -0.29183,0.0791 a 91.94595,91.998357 4.8753213 0 0 -4.47583,-9.50145 l 0.26436,-0.1866 1.08946,-2.36236 8.8224,-7.00845 4.47817,-6.34408 -7.13208,-10.1443 -7.48068,2.07258 -9.57398,5.94025 -2.5898,0.22719 -0.32478,0.2286 a 91.94595,91.998357 4.8753213 0 0 -7.41783,-7.39248 l 0.22602,-0.32376 0.21557,-2.59303 5.89564,-9.60545 2.03845,-7.49268 -10.1689,-7.09234 -6.3209,4.50828 -6.96637,8.85791 -2.35703,1.09985 -0.1767,0.25376 a 91.94595,91.998357 4.8753213 0 0 -9.52798,-4.41082 l 0.0821,-0.30715 -0.68355,-2.50972 2.25653,-11.04332 -0.6458,-7.73897 -11.98064,-3.18329 -4.39896,6.39806 -3.51848,10.70823 -1.83845,1.83982 -0.10196,0.38252 a 91.94595,91.998357 4.8753213 0 0 -5.19331,-0.70602 91.94595,91.998357 4.8753213 0 0 -5.2448,-0.26043 l -0.0288,-0.31756 -1.5003,-2.1246 -1.65409,-11.14944 -3.25184,-7.05065 -12.34669,1.10827 -1.94716,7.5178 0.3546,11.26602 -1.09963,2.35765 0.032,0.35834 a 91.94595,91.998357 4.8753213 0 0 -10.10713,2.76302 l -0.16457,-0.35129 -2.1367,-1.48315 -5.36459,-9.9097 -5.46704,-5.51374 -11.22316,5.26767 0.74004,7.72967 4.18368,10.46518 -0.22668,2.59209 0.16043,0.34324 a 91.94595,91.998357 4.8753213 0 0 -8.59242,6.00567 l -0.24417,-0.24245 -2.51391,-0.66252 -8.42963,-7.4759 -7.02161,-3.30958 -8.74611,8.78995 3.33808,7.01079 7.50799,8.40138 0.6736,2.51275 0.25115,0.25076 a 91.94595,91.998357 4.8753213 0 0 -5.96747,8.61837 l -0.34927,-0.16181 -2.58984,0.23874 -10.47648,-4.14099 -7.72993,-0.70744 -5.21471,11.25351 5.53353,5.44524 9.9277,5.32471 1.49199,2.13158 0.34649,0.16064 a 91.94595,91.998357 4.8753213 0 0 -2.72248,10.12668 l -0.34805,-0.0297 -2.35209,1.10989 -11.26017,-0.30519 -7.505524,1.97989 z m 36.43036,-11.50974 a 77.561113,77.605321 4.8753213 0 1 50.46961,-58.26086 l 7.1146,30.53681 a 46.475345,46.501835 4.8753213 0 0 -26.29831,30.39264 z m -1.35897,16.66646 31.20752,2.66189 a 46.475345,46.501835 4.8753213 0 0 20.77388,34.44242 l -12.1814,28.88802 a 77.561113,77.605321 4.8753213 0 1 -39.8,-65.99233 z m 55.17811,72.53166 12.21512,-28.96707 a 46.475345,46.501835 4.8753213 0 0 6.10454,0.98612 46.475345,46.501835 4.8753213 0 0 33.03589,-10.09077 l 23.68248,20.50799 a 77.561113,77.605321 4.8753213 0 1 -59.36178,20.57369 77.561113,77.605321 4.8753213 0 1 -15.67625,-3.00996 z M 200.8825,184.79466 a 77.561113,77.605321 4.8753213 0 1 15.94479,-0.37544 77.561113,77.605321 4.8753213 0 1 55.02193,30.32828 l -26.84705,16.22017 a 46.475345,46.501835 4.8753213 0 0 -30.8183,-15.55754 46.475345,46.501835 4.8753213 0 0 -6.18258,-0.06 z m 49.34186,100.52225 a 46.475345,46.501835 4.8753213 0 0 6.31481,-19.62315 46.475345,46.501835 4.8753213 0 0 -2.88688,-20.41861 l 26.82584,-16.20848 a 77.561113,77.605321 4.8753213 0 1 7.03429,39.269 77.561113,77.605321 4.8753213 0 1 -13.55728,37.53284 z"
           id="circle5257"
           inkscape:connector-curvature="0" />
        <path
           style="fill:#0f4c75;fill-opacity:1;fill-rule:evenodd;stroke:none;stroke-width:0.26458335px;stroke-linecap:butt;stroke-linejoin:miter;stroke-opacity:1;filter:url(#filter8154)"
           d="m 210.23084,232.79545 a 15.394047,15.385278 0 0 0 -15.39377,15.38598 15.394047,15.385278 0 0 0 8.72566,13.84488 l -2.87366,28.66566 h 19.08451 l -2.87271,-28.65894 a 15.394047,15.385278 0 0 0 8.72472,-13.8516 15.394047,15.385278 0 0 0 -15.39475,-15.38598 z"
           id="path5279"
           inkscape:connector-curvature="0" />
      </g>
    </g>
  </g>
</svg>
