<svg version="1.1"
     baseProfile="full"
     width="1" height="1"
     xmlns="http://www.w3.org/2000/svg">

  <path d="M 1.0000007,0.71751862 0.84929195,0.68680143 0.77333929,0.55305954 0.69755523,0.68689591 0.54688402,0.71780429 0.65075252,0.8312366 0.63358677,0.98408383 0.77356905,0.92034791 0.91362744,0.98390937 0.89627117,0.83108296 Z M 0.26820144,0.01591617 V 0.22824246 H 0.13410063 L 0.31290171,0.40704354 0.4917028,0.22824246 H 0.35760198 V 0.01591617 Z M 0.09521161,0.10531671 c -0.02235013,0 -0.04112425,0.0169855 -0.04470027,0.0384416 L -1.8598161e-7,0.46291888 v 0.11175068 c 0,0.0245851 0.0201151259816,0.0447003 0.0447002759816,0.0447003 h 0.53640325 c 0.0245852,0 0.0447003,-0.0201151 0.0447003,-0.0447003 V 0.46291888 L 0.57529208,0.14375829 c -0.003576,-0.0214561 -0.0223501,-0.0384416 -0.0447003,-0.0384416 h -0.0835893 v 0.0442528 h 0.0894005 l 0.0447003,0.31290189 H 0.04470009 L 0.08940036,0.14956954 H 0.1788009 v -0.0442528 z"
        fill="#cb1aba"
        id="icon" />

</svg>
