<svg version="1.1"
     baseProfile="full"
     width="1" height="1"
     xmlns="http://www.w3.org/2000/svg">

  <path d="M 0.97204894,0.70236935 H 0.83964436 V 0.56996479 H 0.70723977 V 0.70236935 H 0.57483519 V 0.834774 H 0.70723977 V 0.96717858 H 0.83964436 V 0.834774 H 0.97204894 Z M 0.26820114,0.01591617 V 0.22824246 H 0.13410033 L 0.31290141,0.40704354 0.4917025,0.22824246 H 0.35760168 V 0.01591617 Z M 0.09521131,0.10531671 c -0.02235013,0 -0.04112425,0.0169855 -0.04470027,0.0384416 L -4.8598161e-7,0.46291888 v 0.11175068 c 0,0.0245851 0.0201151259816,0.0447003 0.0447002759816,0.0447003 h 0.53640325 c 0.0245851,0 0.0447003,-0.0201151 0.0447003,-0.0447003 V 0.46291888 L 0.57529178,0.14375829 c -0.003576,-0.0214561 -0.0223501,-0.0384416 -0.0447003,-0.0384416 h -0.0835893 v 0.0442528 h 0.0894005 l 0.0447003,0.31290189 H 0.04469979 L 0.08940006,0.14956954 H 0.1788006 v -0.0442528 z"
        fill="#cb1aba"
        id="icon" />

</svg>
