<svg version="1.1"
     baseProfile="full"
     width="1" height="1"
     xmlns="http://www.w3.org/2000/svg">

  <path d="M 0.0703125,0.24804688 C 0.03153609,0.24804695 0,0.27958293 0,0.31835938 v 0.36328124 c 0,0.0387764 0.03153607,0.0703125 0.0703125,0.0703125 h 0.859375 C 0.96846397,0.75195312 1,0.72041705 1,0.68164062 V 0.31835938 C 1,0.27958289 0.96846392,0.24804688 0.9296875,0.24804688 Z m 0,0.0507812 h 0.859375 c 0.0112826,0 0.0195313,0.008249 0.0195313,0.0195313 v 0.36328124 c 0,0.0112826 -0.008249,0.0195313 -0.0195313,0.0195313 h -0.859375 c -0.01128263,0 -0.01953125,-0.008249 -0.01953125,-0.0195313 V 0.31835938 c 0,-0.0112826 0.0082486,-0.0195312 0.01953125,-0.0195313 z m 0.83910851,0.27847129 v -0.0447218 h -0.0285294 v -0.1680924 h -0.063613 l -0.0998531,0.16732134 v 0.0454929 h 0.10949138 v 0.0605287 h 0.0539746 v -0.0605287 z m -0.0825041,-0.0447218 h -0.0713236 l 0.0713236,-0.11681651 z m -0.13441243,0.0212043 c 0,-0.0319992 -0.0138792,-0.0501193 -0.0447218,-0.0651551 0.0254452,-0.0158069 0.0358546,-0.0304571 0.0358546,-0.0555168 0,-0.0454929 -0.0339269,-0.0744079 -0.0867449,-0.0744079 -0.052818,0 -0.0886726,0.0277584 -0.0886726,0.0871305 v 0.004626 h 0.0501193 c 0,-0.0339269 0.0107949,-0.0481916 0.0373967,-0.0481916 0.0215898,0 0.0339269,0.0131081 0.0339269,0.0358546 0,0.0273729 -0.0158069,0.0385533 -0.0478061,0.0385533 h -0.004626 v 0.0362401 c 0.040481,0 0.0612998,0.011566 0.0612998,0.0408665 0,0.023903 -0.0169635,0.041252 -0.040481,0.041252 -0.0254452,0 -0.0408665,-0.0146503 -0.0408665,-0.0427942 h -0.0524325 c 0,0.0547457 0.0362401,0.0890581 0.0921424,0.0890581 0.0582155,0 0.0956122,-0.0343124 0.0956117,-0.0875155 z M 0.4775156,0.44544707 c 0,-0.052818 -0.0362401,-0.0867449 -0.0936845,-0.0867449 -0.0566734,0 -0.0898292,0.0335414 -0.0898292,0.0913713 0,0.002313 0,0.005397 3.8554e-4,0.009638 h 0.0516614 v -0.008867 c 0,-0.0304571 0.0142647,-0.0481916 0.0389388,-0.0481916 0.023903,0 0.0385533,0.0165779 0.0385533,0.0439508 0,0.0300716 -0.009638,0.0420231 -0.0697815,0.0848173 -0.046264,0.0316137 -0.0605287,0.0559023 -0.0632274,0.10640712 H 0.476359 V 0.58963642 H 0.36069909 c 0.00694,-0.0146503 0.0154213,-0.0223609 0.0555168,-0.0516614 0.0474206,-0.034698 0.0612998,-0.0555168 0.0612997,-0.0925279 z M 0.21009422,0.63782805 V 0.36448513 h -0.0358546 c -0.008482,0.0323848 -0.0366256,0.0489627 -0.08366067,0.0489627 V 0.4493024 H 0.1561196 v 0.18852565 z"
     fill="#12d9b1"
     id="icon" />

</svg>
