<?xml version="1.0" encoding="UTF-8" standalone="no"?>
<svg
   xmlns:dc="http://purl.org/dc/elements/1.1/"
   xmlns:cc="http://creativecommons.org/ns#"
   xmlns:rdf="http://www.w3.org/1999/02/22-rdf-syntax-ns#"
   xmlns:svg="http://www.w3.org/2000/svg"
   xmlns="http://www.w3.org/2000/svg"
   xmlns:sodipodi="http://sodipodi.sourceforge.net/DTD/sodipodi-0.dtd"
   xmlns:inkscape="http://www.inkscape.org/namespaces/inkscape"
   viewBox="0 0 16 16"
   width="16"
   height="16"
   version="1.1"
   id="svg62"
   sodipodi:docname="ghost.svg"
   inkscape:version="1.0 (4035a4fb49, 2020-05-01)">
  <metadata
     id="metadata68">
    <rdf:RDF>
      <cc:Work
         rdf:about="">
        <dc:format>image/svg+xml</dc:format>
        <dc:type
           rdf:resource="http://purl.org/dc/dcmitype/StillImage" />
        <dc:title></dc:title>
      </cc:Work>
    </rdf:RDF>
  </metadata>
  <defs
     id="defs66">
    <inkscape:path-effect
       effect="fillet_chamfer"
       id="path-effect1157"
       is_visible="true"
       lpeversion="1"
       satellites_param="F,0,0,1,0,0,0,1 @ F,0,0,1,0,1.5,0,1 @ F,0,0,1,0,1.5,0,1 @ F,0,0,1,0,1.5,0,1 @ F,0,0,1,0,1.5,0,1 @ F,0,0,1,0,1.5,0,1 @ F,0,0,1,0,0,0,1"
       unit="px"
       method="auto"
       mode="F"
       radius="1.5"
       chamfer_steps="1"
       flexible="false"
       use_knot_distance="true"
       apply_no_radius="true"
       apply_with_radius="true"
       only_selected="false"
       hide_knots="false" />
    <inkscape:path-effect
       effect="fillet_chamfer"
       id="path-effect1155"
       is_visible="true"
       lpeversion="1"
       satellites_param="F,0,0,1,0,0,0,1 @ F,0,0,1,0,0,0,1 @ F,0,0,1,0,0,0,1 @ F,0,0,1,0,0,0,1 @ F,0,0,1,0,0,0,1 @ F,0,0,1,0,0,0,1 @ F,0,0,1,0,0,0,1"
       unit="px"
       method="auto"
       mode="F"
       radius="2"
       chamfer_steps="1"
       flexible="false"
       use_knot_distance="true"
       apply_no_radius="true"
       apply_with_radius="true"
       only_selected="false"
       hide_knots="false" />
    <inkscape:path-effect
       effect="interpolate_points"
       id="path-effect1127"
       is_visible="true"
       lpeversion="1"
       interpolator_type="CentripetalCatmullRom" />
  </defs>
  <sodipodi:namedview
     inkscape:guide-bbox="true"
     showguides="true"
     inkscape:snap-page="true"
     inkscape:bbox-nodes="true"
     inkscape:bbox-paths="false"
     inkscape:snap-bbox="true"
     inkscape:document-rotation="0"
     pagecolor="#ffffff"
     bordercolor="#666666"
     borderopacity="1"
     objecttolerance="10"
     gridtolerance="10"
     guidetolerance="10"
     inkscape:pageopacity="0"
     inkscape:pageshadow="2"
     inkscape:window-width="1276"
     inkscape:window-height="759"
     id="namedview64"
     showgrid="true"
     inkscape:object-paths="true"
     inkscape:snap-smooth-nodes="true"
     inkscape:snap-midpoints="true"
     inkscape:snap-global="true"
     inkscape:snap-others="false"
     inkscape:snap-grids="true"
     inkscape:zoom="22.627417"
     inkscape:cx="9.3997882"
     inkscape:cy="9.8491054"
     inkscape:window-x="0"
     inkscape:window-y="0"
     inkscape:window-maximized="1"
     inkscape:current-layer="svg62">
    <inkscape:grid
       type="xygrid"
       id="grid1129" />
  </sodipodi:namedview>
  <g
     style="stroke-width:0.74442"
     transform="matrix(1.3433285,0,0,1.3433285,-4.0899578,-2.457263)"
     id="g1189">
    <path
       d="m 6.8362176,4.8069129 c -0.5136496,0 -0.9305246,0.4168745 -0.9305246,0.9305243 v 1.1166295 c 0,1.2406998 1.8610493,1.2406998 1.8610493,0 V 5.7374372 c 0,-0.5136498 -0.4168751,-0.9305243 -0.9305247,-0.9305243 z m 4.3275674,0 c -0.513649,0 -0.930525,0.4168745 -0.930525,0.9305243 v 1.1166295 c 0,1.2406998 1.861049,1.2406998 1.861049,0 V 5.7374372 c 0,-0.5136498 -0.416875,-0.9305243 -0.930524,-0.9305243 z m 2.706792,8.6726571 c -0.200207,0.279343 -0.588722,0.343975 -0.868586,0.144493 0,0 -0.645276,-0.779292 -1.092632,-0.779292 -0.447355,0 -1.092633,0.779292 -1.092633,0.779292 -0.216635,0.154512 -0.507456,0.154512 -0.724092,0 0,0 -0.6452768,-0.779292 -1.0926321,-0.779292 -0.4473555,0 -1.0926325,0.779292 -1.0926325,0.779292 -0.216636,0.154512 -0.5074564,0.154512 -0.7240923,0 0,0 -0.6452771,-0.779292 -1.0926325,-0.779292 -0.4473554,0 -1.0926324,0.779292 -1.0926324,0.779292 C 4.718149,13.823545 4.3296342,13.758913 4.1294262,13.47957 4.0462837,13.362924 4.0090181,13.227404 4.0132981,13.106017 L 4.0125313,6.6277914 c -5.67e-5,-2.6374027 2.2198383,-4.7911329 4.9874696,-4.7985376 2.7676311,-0.0074 4.9873531,2.1401664 4.9874701,4.7985376 l -7.45e-4,6.4782256 c 0.0042,0.121387 -0.03299,0.256907 -0.116128,0.373553 z"
       style="fill:#000000;fill-opacity:1;stroke:none;stroke-width:0.0744417;stroke-linecap:round;stroke-linejoin:round;stroke-miterlimit:4;stroke-dasharray:none;stroke-opacity:1"
       id="path1183" />
  </g>
</svg>
