<svg version="1.1"
     baseProfile="full"
     width="1" height="1"
     xmlns="http://www.w3.org/2000/svg">

  <path d="m 0.83361422,0.69237402 c 0,-0.048082 -0.0329905,-0.0789667 -0.085284,-0.0789667 -0.0515916,0 -0.0817744,0.0305338 -0.0817744,0.0831783 0,0.002106 0,0.004913 3.5096e-4,0.008774 h 0.0470291 v -0.008072 c 0,-0.0277261 0.0129856,-0.0438704 0.0354473,-0.0438704 0.0217597,0 0.0350963,0.0150914 0.0350963,0.0400098 0,0.0273751 -0.008774,0.038255 -0.0635243,0.0772119 -0.0421156,0.028779 -0.0551012,0.0508897 -0.057558,0.0968659 H 0.83256133 V 0.82363426 H 0.72727237 c 0.006317,-0.0133366 0.0140385,-0.0203559 0.0505387,-0.0470291 0.0431685,-0.0315867 0.0558031,-0.0505387 0.0558031,-0.0842311 z M 0.86789062,0 a 0.12338537,0.12338537 0 0 0 -0.12338671,0.12338478 0.12338537,0.12338537 0 0 0 0.0861269,0.11758398 c 0.001852,0.034229 -2.007e-5,0.0591314 -0.004461,0.0754375 -0.007268,0.0266861 -0.0108438,0.0299013 -0.03125,0.0351563 C 0.75410779,0.36207239 0.63760555,0.33718864 0.4765625,0.29882813 0.38001628,0.27583079 0.30684693,0.2787503 0.25195312,0.31054689 0.19705934,0.34234345 0.1704934,0.39874871 0.15625,0.45507813 0.13128989,0.55378965 0.13363077,0.66894908 0.10563867,0.75463478 A 0.12338537,0.12338537 0 0 0 0,0.87661524 0.12338537,0.12338537 0 0 0 0.12338477,1 0.12338537,0.12338537 0 0 0 0.24677148,0.87661524 0.12338537,0.12338537 0 0 0 0.19562891,0.77673829 c 0.0357141,-0.10661111 0.0331227,-0.22191431 0.052418,-0.29822266 0.0112863,-0.0446346 0.025139,-0.0710845 0.0507812,-0.0859375 0.0256423,-0.014853 0.072079,-0.0220028 0.15625,-0.001953 0.15925458,0.0379345 0.2708807,0.0765291 0.36328126,0.0527344 0.0462002,-0.0118974 0.0840028,-0.0514349 0.0976543,-0.1015625 0.008514,-0.0312624 0.0112568,-0.0669129 0.009092,-0.10916602 A 0.12338537,0.12338537 0 0 0 0.99127539,0.12338478 0.12338537,0.12338537 0 0 0 0.86789062,0 Z"
        fill="#f0a41c"
        id="icon"/>
       
</svg>
